<?xml version="1.0" standalone="no"?>
<!DOCTYPE svg PUBLIC "-//W3C//DTD SVG 20010904//EN"
 "http://www.w3.org/TR/2001/REC-SVG-20010904/DTD/svg10.dtd">
<svg version="1.0" xmlns="http://www.w3.org/2000/svg"
 width="2268.000000pt" height="798.000000pt" viewBox="0 0 2268.000000 798.000000"
 preserveAspectRatio="xMidYMid meet">

<g transform="translate(0.000000,798.000000) scale(0.100000,-0.100000)"
fill="#000000" stroke="none">
<path d="M12189 5873 c-6 -16 -317 -869 -691 -1898 -374 -1028 -683 -1876
-686 -1883 -3 -10 7 -12 43 -10 l48 3 693 1905 c382 1048 694 1906 694 1908 0
1 -20 2 -45 2 -40 0 -47 -3 -56 -27z"/>
<path d="M18610 4050 l0 -1470 285 0 285 0 2 485 3 486 333 -436 c184 -239
351 -458 373 -485 l39 -50 335 0 c184 0 335 2 335 5 0 3 -195 249 -433 548
-238 298 -445 558 -460 578 l-27 36 457 457 458 456 -330 0 -330 0 -377 -377
-378 -378 0 808 0 807 -285 0 -285 0 0 -1470z"/>
<path d="M12960 5145 l0 -255 385 0 385 0 0 -1155 0 -1155 300 0 300 0 0 1155
0 1155 338 0 337 0 85 241 c47 133 86 247 88 255 3 12 -161 14 -1107 14
l-1111 0 0 -255z"/>
<path d="M2955 5135 c-46 -45 -28 -119 34 -145 93 -38 172 81 99 150 -32 30
-101 28 -133 -5z"/>
<path d="M3920 4735 l0 -415 70 0 70 0 0 158 c0 86 5 175 10 196 13 57 48 88
108 94 107 10 122 -23 122 -268 l0 -180 70 0 70 0 0 214 c0 228 -4 253 -48
299 -43 45 -80 60 -152 60 -68 0 -114 -17 -157 -56 l-23 -20 0 166 0 167 -70
0 -70 0 0 -415z"/>
<path d="M4580 4778 c0 -352 1 -375 20 -405 10 -17 29 -37 41 -44 20 -10 135
-16 145 -7 1 2 0 29 -3 60 -5 52 -8 57 -32 60 l-26 3 -3 353 -2 352 -70 0 -70
0 0 -372z"/>
<path d="M6580 4988 c0 -153 -1 -160 -17 -146 -41 36 -88 52 -154 51 -117 0
-198 -59 -236 -168 -23 -65 -22 -204 1 -257 21 -48 71 -105 110 -125 78 -41
195 -33 258 17 20 17 39 30 42 30 3 0 6 -16 6 -35 l0 -35 70 0 70 0 0 415 0
415 -75 0 -75 0 0 -162z m-66 -236 c43 -25 66 -76 66 -145 0 -108 -53 -169
-147 -169 -84 0 -133 61 -133 165 0 79 28 132 83 158 46 21 83 18 131 -9z"/>
<path d="M8390 4793 c0 -366 4 -416 39 -447 26 -23 82 -35 131 -29 36 5 40 9
40 33 0 52 -12 91 -26 86 -7 -3 -20 2 -29 10 -13 13 -15 64 -15 360 l0 344
-70 0 -70 0 0 -357z"/>
<path d="M8700 4785 c0 -397 2 -416 55 -451 18 -11 45 -17 87 -16 33 1 62 3
64 5 3 2 2 29 -2 60 -6 51 -9 56 -33 59 l-26 3 -3 353 -2 352 -70 0 -70 0 0
-365z"/>
<path d="M2130 4720 l0 -400 70 0 70 0 2 173 3 172 185 0 185 0 3 -172 2 -173
70 0 70 0 0 400 0 400 -70 0 -70 0 0 -165 0 -165 -187 2 -188 3 -3 163 -2 162
-70 0 -70 0 0 -400z"/>
<path d="M7020 5114 c0 -4 64 -184 142 -401 l142 -393 77 0 77 0 16 43 c9 23
74 202 145 397 l128 355 -70 3 c-39 2 -73 -1 -76 -7 -3 -5 -53 -147 -111 -315
-57 -168 -106 -303 -109 -300 -3 3 -53 143 -112 312 l-106 307 -71 3 c-40 2
-72 0 -72 -4z"/>
<path d="M3425 4893 c-100 -23 -163 -76 -195 -159 -44 -118 -18 -273 57 -346
51 -50 99 -68 179 -68 54 0 76 5 111 25 23 14 43 30 43 35 0 6 5 10 10 10 15
0 12 -86 -4 -125 -23 -55 -68 -77 -150 -73 -63 4 -71 6 -96 36 -25 30 -31 32
-88 32 -69 0 -73 -5 -48 -63 35 -81 112 -117 251 -117 86 0 98 3 156 33 49 25
70 43 94 81 l30 49 3 324 3 323 -70 0 -71 0 0 -37 0 -37 -27 26 c-16 14 -37
30 -48 36 -25 12 -113 22 -140 15z m138 -140 c58 -29 89 -122 67 -203 -30
-110 -159 -151 -232 -73 -63 69 -63 187 0 256 44 46 100 53 165 20z"/>
<path d="M5070 4893 c-93 -16 -153 -55 -181 -117 -32 -70 -28 -76 44 -76 58 0
65 2 75 24 20 44 59 60 135 57 42 -2 87 -51 87 -95 l0 -36 -67 0 c-202 0 -307
-61 -307 -179 1 -102 64 -153 190 -153 81 0 155 27 175 64 10 19 12 19 29 -10
11 -17 29 -36 41 -43 20 -10 135 -16 145 -7 1 2 0 29 -3 60 -5 52 -8 57 -32
60 l-26 3 -5 157 c-5 154 -5 157 -35 199 -18 25 -49 52 -75 65 -45 22 -141 36
-190 27z m160 -359 c0 -93 -176 -155 -226 -79 -42 64 30 111 174 114 l52 1 0
-36z"/>
<path d="M5789 4891 c-40 -8 -109 -47 -109 -62 0 -5 -4 -9 -10 -9 -5 0 -10 16
-10 35 l0 35 -70 0 -70 0 0 -285 0 -285 75 0 75 0 0 183 c0 164 2 185 20 215
22 36 54 52 106 52 91 0 104 -35 104 -270 l0 -180 70 0 70 0 0 217 c0 200 -2
220 -21 260 -35 73 -135 114 -230 94z"/>
<path d="M7923 4890 c-95 -20 -163 -80 -179 -158 l-6 -32 66 0 c61 0 67 2 76
24 16 43 56 60 133 57 42 -2 87 -51 87 -95 l0 -36 -68 0 c-202 0 -302 -59
-302 -180 0 -101 61 -152 183 -152 82 0 147 22 177 59 l19 24 15 -28 c20 -40
58 -57 123 -56 30 1 57 4 60 6 2 3 2 30 -2 61 -7 50 -10 56 -30 56 -13 0 -26
7 -29 16 -3 9 -6 75 -6 147 0 143 -12 189 -61 234 -51 46 -169 71 -256 53z
m177 -356 c0 -71 -93 -128 -179 -109 -37 8 -53 27 -53 61 0 53 59 80 180 83
l52 1 0 -36z"/>
<path d="M9191 4890 c-134 -28 -214 -133 -215 -285 0 -100 27 -168 90 -224 53
-47 108 -64 203 -63 99 1 173 36 212 102 15 25 30 55 34 68 6 21 4 22 -64 22
-62 0 -70 -2 -76 -21 -17 -54 -130 -77 -192 -39 -33 20 -50 44 -63 91 l-9 29
205 0 204 0 0 48 c0 187 -147 308 -329 272z m132 -122 c22 -11 57 -67 57 -90
0 -16 -13 -18 -131 -18 l-131 0 7 28 c9 36 52 80 90 91 32 10 78 5 108 -11z"/>
<path d="M2950 4605 l0 -285 70 0 70 0 0 285 0 285 -70 0 -70 0 0 -285z"/>
<path d="M9560 4883 c0 -4 47 -133 105 -287 58 -153 105 -286 105 -295 0 -58
-77 -109 -146 -97 l-34 7 0 -59 c0 -67 6 -72 85 -72 98 0 162 44 208 142 23
49 247 650 247 663 0 3 -32 5 -72 3 l-72 -3 -68 -205 c-37 -113 -68 -207 -68
-210 -1 -3 -16 45 -35 105 -19 61 -49 155 -68 210 l-34 100 -76 3 c-43 2 -77
-1 -77 -5z"/>
<path d="M15460 4705 c-203 -32 -389 -131 -531 -283 -169 -181 -266 -415 -289
-696 -36 -449 125 -833 434 -1037 177 -116 347 -162 606 -162 270 0 479 37
673 119 l88 37 -5 36 c-3 20 -8 127 -12 237 l-6 201 -92 -46 c-192 -98 -354
-136 -581 -136 -177 0 -243 15 -338 75 -113 71 -204 211 -214 329 l-6 61 684
2 684 3 -1 205 c-1 171 -5 223 -23 310 -67 315 -225 544 -460 665 -157 80
-402 112 -611 80z m320 -432 c143 -48 239 -195 252 -383 l3 -45 -423 -3 -422
-2 0 27 c0 38 42 152 76 210 62 106 184 192 301 213 59 10 153 3 213 -17z"/>
<path d="M17682 4709 c-368 -48 -672 -264 -832 -593 -77 -158 -101 -265 -107
-476 -5 -203 11 -311 70 -468 92 -246 279 -447 513 -553 272 -124 668 -124
975 -1 l74 30 -3 203 c-1 112 -5 218 -7 235 l-5 32 -80 -35 c-134 -58 -258
-85 -395 -86 -187 -2 -307 44 -415 159 -104 112 -150 238 -157 434 -6 151 9
226 68 349 103 211 324 337 560 317 103 -9 218 -39 308 -81 41 -20 75 -34 76
-33 2 2 8 80 14 173 6 94 14 197 17 231 l6 60 -84 32 c-192 73 -397 97 -596
71z"/>
<path d="M2333 3872 c-102 -37 -161 -92 -211 -200 -25 -53 -27 -67 -27 -187 0
-125 1 -133 31 -195 42 -89 84 -134 161 -172 131 -64 316 -46 416 42 48 43 91
119 102 183 l6 37 -71 0 c-59 0 -72 -3 -76 -17 -3 -10 -15 -38 -27 -63 -54
-111 -242 -127 -334 -28 -47 50 -68 116 -68 213 0 73 5 100 23 140 44 96 109
139 208 139 100 -1 169 -54 198 -156 5 -15 17 -18 76 -18 l71 0 -6 38 c-17 99
-91 194 -184 235 -67 29 -217 34 -288 9z"/>
<path d="M3061 3643 c-61 -22 -133 -96 -154 -158 -26 -74 -22 -188 7 -250 47
-103 127 -148 261 -149 82 -1 95 2 145 29 60 33 114 96 130 153 17 64 12 181
-11 232 -25 56 -71 105 -124 133 -54 28 -191 34 -254 10z m200 -129 c56 -50
74 -155 39 -231 -49 -109 -193 -111 -247 -3 -43 83 -19 198 49 240 42 27 126
23 159 -6z"/>
<path d="M3580 3255 l0 -405 70 0 70 0 0 158 c1 116 3 152 11 139 6 -11 34
-30 63 -43 138 -64 293 9 341 162 23 74 17 201 -13 260 -45 88 -119 133 -218
134 -69 0 -116 -16 -156 -53 l-27 -25 -6 39 -7 39 -64 0 -64 0 0 -405z m357
265 c85 -52 95 -195 18 -278 -30 -34 -38 -37 -87 -37 -64 0 -107 26 -133 81
-23 49 -17 153 11 191 44 60 131 80 191 43z"/>
<path d="M4270 3255 l0 -405 70 0 70 0 0 154 0 154 31 -29 c75 -70 216 -64
303 12 114 101 129 329 28 441 -49 55 -102 78 -180 78 -70 0 -112 -14 -159
-54 l-33 -28 0 41 0 41 -65 0 -65 0 0 -405z m361 262 c25 -16 39 -37 52 -76
30 -90 4 -178 -65 -222 -63 -39 -157 -8 -192 65 -23 49 -21 143 4 184 43 70
135 93 201 49z"/>
<path d="M5073 3630 c-93 -47 -139 -118 -150 -234 -19 -211 145 -351 359 -307
77 16 133 59 164 124 l24 52 -65 3 c-62 3 -67 1 -91 -27 -50 -60 -152 -62
-206 -4 -20 22 -48 80 -48 99 0 2 93 4 206 4 l207 0 -6 67 c-16 163 -109 252
-268 253 -54 0 -77 -6 -126 -30z m196 -95 c26 -13 61 -67 61 -94 0 -7 -42 -11
-130 -11 -84 0 -130 4 -130 10 0 25 33 72 63 90 38 24 97 26 136 5z"/>
<path d="M5580 3375 l0 -285 70 0 70 0 0 141 c0 170 10 219 57 259 27 24 43
30 78 30 l45 0 0 70 0 70 -42 0 c-46 0 -90 -23 -120 -62 l-18 -23 0 43 0 42
-70 0 -70 0 0 -285z"/>
</g>
</svg>
