<?xml version="1.0" standalone="no"?>
<!DOCTYPE svg PUBLIC "-//W3C//DTD SVG 20010904//EN"
 "http://www.w3.org/TR/2001/REC-SVG-20010904/DTD/svg10.dtd">
<svg version="1.0" xmlns="http://www.w3.org/2000/svg"
 width="2104.000000pt" height="798.000000pt" viewBox="0 0 2104.000000 798.000000"
 preserveAspectRatio="xMidYMid meet">

<g transform="translate(0.000000,798.000000) scale(0.100000,-0.100000)"
fill="#000000" stroke="none">
<path d="M9862 3998 c-380 -1047 -692 -1906 -692 -1910 0 -5 20 -8 45 -8 25 0
45 2 45 4 0 2 312 861 694 1910 l694 1906 -47 0 -46 0 -693 -1902z"/>
<path d="M16970 4050 l0 -1470 285 0 285 0 0 486 0 486 372 -486 372 -486 339
0 c270 0 337 3 330 13 -6 6 -213 267 -462 579 -248 312 -451 571 -451 575 -1
4 205 211 457 460 l458 452 -330 1 -330 0 -377 -377 -378 -378 0 808 0 807
-285 0 -285 0 0 -1470z"/>
<path d="M11310 5145 l0 -255 388 -2 387 -3 3 -1152 2 -1153 295 0 295 0 2
1153 3 1152 336 3 c309 2 338 4 344 20 4 9 42 117 86 239 44 123 82 230 85
238 5 13 -121 15 -1110 15 l-1116 0 0 -255z"/>
<path d="M13845 4710 c-269 -36 -508 -186 -661 -417 -254 -381 -259 -974 -11
-1346 211 -315 539 -451 1004 -417 222 16 401 57 567 129 l48 21 -6 193 c-4
105 -9 213 -12 238 l-5 45 -85 -43 c-172 -90 -334 -131 -544 -139 -113 -5
-160 -3 -213 10 -191 45 -333 182 -372 362 -9 40 -14 78 -10 84 4 7 222 10
685 10 l678 0 8 67 c9 89 -1 295 -21 408 -60 343 -220 583 -469 705 -55 28
-128 57 -160 65 -130 33 -289 42 -421 25z m304 -443 c70 -26 145 -95 182 -169
32 -64 59 -163 59 -220 l0 -38 -426 0 -426 0 7 33 c4 17 17 62 30 100 87 256
336 383 574 294z"/>
<path d="M16035 4709 c-102 -13 -238 -54 -333 -99 -463 -220 -697 -737 -581
-1280 45 -206 129 -360 279 -510 108 -108 192 -165 320 -217 276 -111 650
-103 948 19 l74 31 -6 126 c-4 69 -9 174 -12 233 l-6 106 -67 -30 c-147 -66
-355 -106 -480 -93 -288 31 -460 212 -502 530 -29 219 35 419 180 565 88 89
165 131 281 156 135 29 322 1 477 -71 40 -19 73 -33 74 -32 1 1 9 105 18 231
l16 228 -35 18 c-50 25 -152 57 -240 75 -92 20 -311 27 -405 14z"/>
<path d="M4709 4368 c0 -236 -1 -251 -16 -230 -72 104 -286 143 -427 79 -161
-74 -244 -235 -233 -447 14 -255 166 -400 406 -388 103 6 165 31 229 95 l42
42 0 -64 0 -65 75 0 75 0 0 615 0 615 -75 0 -75 0 -1 -252z m-190 -264 c67
-20 131 -78 162 -147 33 -75 34 -211 1 -282 -103 -223 -405 -218 -476 8 -25
79 -19 211 13 282 56 127 168 179 300 139z"/>
<path d="M2080 3986 l0 -596 80 0 80 0 0 240 0 241 118 -3 117 -3 90 -167
c113 -209 141 -249 202 -285 43 -25 57 -28 140 -28 50 0 94 3 97 6 3 3 3 33 0
67 l-7 62 -58 0 c-84 0 -107 25 -202 208 -42 82 -77 152 -77 155 0 2 12 8 28
11 46 12 129 73 160 119 46 65 66 146 59 238 -9 140 -65 227 -185 286 l-76 38
-283 3 -283 3 0 -595z m556 437 c84 -45 119 -113 112 -223 -5 -86 -39 -142
-111 -179 -44 -22 -62 -25 -222 -29 l-175 -5 0 233 0 232 178 -4 c158 -3 181
-6 218 -25z"/>
<path d="M5530 3985 l0 -595 268 0 c208 0 281 3 327 15 192 49 334 195 381
391 21 85 23 274 5 359 -33 152 -135 293 -259 358 -113 59 -163 67 -459 67
l-263 0 0 -595z m521 451 c86 -19 140 -47 194 -101 172 -171 165 -559 -12
-715 -92 -81 -179 -102 -398 -98 l-150 3 -3 450 c-1 248 0 456 3 463 6 17 279
16 366 -2z"/>
<path d="M3397 4239 c-196 -46 -323 -245 -303 -476 22 -243 172 -383 410 -383
175 0 295 68 356 202 34 74 31 78 -55 78 -73 0 -76 -1 -86 -27 -30 -80 -126
-129 -233 -121 -111 9 -183 68 -216 176 -11 35 -20 68 -20 73 0 5 138 9 320 9
l320 0 0 53 c-1 116 -45 246 -107 313 -88 94 -246 136 -386 103z m178 -133
c62 -19 110 -66 135 -133 33 -89 50 -83 -215 -83 -266 0 -253 -5 -214 80 54
120 169 173 294 136z"/>
<path d="M6980 4235 c-188 -53 -300 -214 -300 -433 0 -182 83 -319 235 -388
84 -39 224 -45 322 -16 182 56 283 204 283 417 0 200 -90 345 -252 407 -72 27
-214 33 -288 13z m199 -131 c244 -72 250 -499 9 -580 -102 -33 -213 -3 -282
78 -50 58 -69 129 -64 233 7 139 72 237 178 270 60 18 96 18 159 -1z"/>
<path d="M7957 4240 c-56 -15 -114 -47 -163 -92 -88 -81 -127 -186 -126 -338
1 -215 102 -366 276 -416 128 -36 295 -1 360 77 14 16 27 29 30 29 10 0 6
-140 -5 -184 -14 -57 -58 -109 -116 -138 -40 -19 -64 -23 -138 -23 -116 0
-178 28 -210 93 l-20 42 -76 0 -77 0 7 -33 c22 -94 90 -170 187 -207 51 -20
77 -24 189 -24 111 0 138 3 186 22 73 29 131 72 169 124 58 80 60 96 60 605
l0 464 -72 -3 -73 -3 -5 -58 -5 -58 -35 37 c-53 57 -129 87 -225 90 -44 2 -97
-1 -118 -6z m194 -136 c71 -21 139 -89 165 -165 27 -79 25 -198 -5 -267 -43
-97 -140 -162 -242 -162 -171 0 -286 197 -235 400 26 102 78 165 162 195 52
19 89 18 155 -1z"/>
</g>
</svg>
